<svg width="1669" height="1023" xmlns="http://www.w3.org/2000/svg" xmlns:xlink="http://www.w3.org/1999/xlink" overflow="hidden"><defs><clipPath id="clip0"><rect x="2607" y="297" width="1669" height="1023"/></clipPath><clipPath id="clip1"><rect x="2612" y="302" width="1660" height="1011"/></clipPath><clipPath id="clip2"><rect x="2612" y="302" width="1660" height="1011"/></clipPath><clipPath id="clip3"><rect x="2774" y="352" width="1446" height="754"/></clipPath><clipPath id="clip4"><rect x="2774" y="352" width="1446" height="754"/></clipPath><clipPath id="clip5"><rect x="2612" y="302" width="1660" height="1011"/></clipPath><clipPath id="clip6"><rect x="2612" y="302" width="1660" height="1011"/></clipPath><clipPath id="clip7"><rect x="2612" y="302" width="1660" height="1011"/></clipPath><clipPath id="clip8"><rect x="2612" y="302" width="1660" height="1011"/></clipPath><clipPath id="clip9"><rect x="2612" y="302" width="1660" height="1011"/></clipPath><clipPath id="clip10"><rect x="2612" y="302" width="1660" height="1011"/></clipPath><clipPath id="clip11"><rect x="2612" y="302" width="1660" height="1011"/></clipPath><clipPath id="clip12"><rect x="2612" y="302" width="1660" height="1011"/></clipPath><clipPath id="clip13"><rect x="2612" y="302" width="1660" height="1011"/></clipPath><clipPath id="clip14"><rect x="2612" y="302" width="1660" height="1011"/></clipPath><clipPath id="clip15"><rect x="2612" y="302" width="1660" height="1011"/></clipPath><clipPath id="clip16"><rect x="2612" y="302" width="1660" height="1011"/></clipPath><clipPath id="clip17"><rect x="2612" y="302" width="1660" height="1011"/></clipPath><clipPath id="clip18"><rect x="2612" y="302" width="1660" height="1011"/></clipPath><clipPath id="clip19"><rect x="2612" y="302" width="1660" height="1011"/></clipPath><clipPath id="clip20"><rect x="2612" y="302" width="1660" height="1011"/></clipPath><clipPath id="clip21"><rect x="2612" y="302" width="1660" height="1011"/></clipPath><clipPath id="clip22"><rect x="2612" y="302" width="1660" height="1011"/></clipPath><clipPath id="clip23"><rect x="2612" y="302" width="1660" height="1011"/></clipPath><clipPath id="clip24"><rect x="2612" y="302" width="1660" height="1011"/></clipPath><clipPath id="clip25"><rect x="2612" y="302" width="1660" height="1011"/></clipPath><clipPath id="clip26"><rect x="2612" y="302" width="1660" height="1011"/></clipPath><clipPath id="clip27"><rect x="2612" y="302" width="1660" height="1011"/></clipPath><clipPath id="clip28"><rect x="2612" y="302" width="1660" height="1011"/></clipPath><clipPath id="clip29"><rect x="2612" y="302" width="1660" height="1011"/></clipPath><clipPath id="clip30"><rect x="2612" y="302" width="1660" height="1011"/></clipPath><clipPath id="clip31"><rect x="2612" y="302" width="1660" height="1011"/></clipPath><clipPath id="clip32"><rect x="2612" y="302" width="1660" height="1011"/></clipPath><clipPath id="clip33"><rect x="2612" y="302" width="1660" height="1011"/></clipPath><clipPath id="clip34"><rect x="2612" y="302" width="1660" height="1011"/></clipPath><clipPath id="clip35"><rect x="2612" y="302" width="1660" height="1011"/></clipPath><clipPath id="clip36"><rect x="2612" y="302" width="1660" height="1011"/></clipPath><clipPath id="clip37"><rect x="2612" y="302" width="1660" height="1011"/></clipPath><clipPath id="clip38"><rect x="2612" y="302" width="1660" height="1011"/></clipPath><clipPath id="clip39"><rect x="2612" y="302" width="1660" height="1011"/></clipPath><clipPath id="clip40"><rect x="2612" y="302" width="1660" height="1011"/></clipPath><clipPath id="clip41"><rect x="2612" y="302" width="1660" height="1011"/></clipPath></defs><g clip-path="url(#clip0)" transform="translate(-2607 -297)"><rect x="2612" y="302" width="1661" height="1012" fill="#FFFFFF" fill-opacity="1"/><g clip-path="url(#clip1)"><path d="M2774.5 977.532 4216.5 977.532M2774.5 852.528 4216.5 852.528M2774.5 727.524 4216.5 727.524M2774.5 602.52 4216.5 602.52M2774.5 477.516 4216.5 477.516M2774.5 352.5 4216.5 352.5" stroke="#D9D9D9" stroke-width="3.4375" stroke-linecap="butt" stroke-linejoin="round" stroke-miterlimit="10" stroke-opacity="1" fill="none" fill-rule="nonzero"/></g><g clip-path="url(#clip2)"><path d="M2774.5 1102.5 4216.5 1102.5" stroke="#D9D9D9" stroke-width="3.4375" stroke-linecap="butt" stroke-linejoin="round" stroke-miterlimit="10" stroke-opacity="1" fill="none" fill-rule="evenodd"/></g><g clip-path="url(#clip3)"><path d="M2788 686.023 2816.09 526.017 2844.09 708.023 2871.09 728.024 2899.1 728.024 2927.1 507.017 2955.1 540.018 2982.1 505.017 3010.1 522.017 3038.1 535.018 3066.1 746 3093.1 535.018 3121.1 535.018 3149.1 634.021 3176.1 746 3204.11 567.019 3232.11 567.019 3260.11 634.021 3287.11 593.019 3315.11 514.017 3343.11 530.017 3371.11 507.017 3398.11 526.017 3426.11 511.017 3454.11 478 3482.11 540.018 3509.12 553.018 3537.12 728.024 3565.12 505.017 3593.12 728.024 3620.12 582.019 3648.12 686.023 3676.12 530.017 3704.12 662.022 3731.12 519.017 3759.12 512.017 3787.12 499.016 3815.13 499.016 3842.13 498.016 3870.13 498.016 3898.13 507.017 3925.13 535.018 3953.13 478 3981.13 728.024 4009.13 530.017 4036.13 505.017 4064.13 708.023 4092.13 728.024 4120.14 505.017 4148 728.024" stroke="#4472C4" stroke-width="10.3125" stroke-linecap="round" stroke-linejoin="round" stroke-miterlimit="10" stroke-opacity="1" fill="none" fill-rule="nonzero"/></g><g clip-path="url(#clip4)"><path d="M2788 530.017 2816.09 519.017 2844.09 670.022 2871.09 582.019 2899.1 517.017 2927.1 526.017 2955.1 530.017 2982.1 522.017 3010.1 519.017 3038.1 544.018 3066.1 612.02 3093.1 522.017 3121.1 526.017 3149.1 612.02 3176.1 673 3204.11 556.018 3232.11 556.018 3260.11 612.02 3287.11 514.017 3315.11 540.018 3343.11 522.017 3371.11 526.017 3398.11 514.017 3426.11 530.017 3454.11 478 3482.11 530.017 3509.12 517.017 3537.12 582.019 3565.12 522.017 3593.12 574.019 3620.12 561.018 3648.12 535.018 3676.12 526.017 3704.12 591.019 3731.12 517.017 3759.12 511.017 3787.12 517.017 3815.13 517.017 3842.13 514.017 3870.13 514.017 3898.13 526.017 3925.13 519.017 3953.13 478 3981.13 574.019 4009.13 522.017 4036.13 522.017 4064.13 670.022 4092.13 530.017 4120.14 522.017 4148 574.019" stroke="#ED7D31" stroke-width="10.3125" stroke-linecap="round" stroke-linejoin="round" stroke-miterlimit="10" stroke-opacity="1" fill="none" fill-rule="nonzero"/></g><g clip-path="url(#clip5)"><text fill="#595959" fill-opacity="1" font-family="Calibri,Calibri_MSFontService,sans-serif" font-style="normal" font-variant="normal" font-weight="400" font-stretch="normal" font-size="41" text-anchor="start" direction="ltr" writing-mode="lr-tb" unicode-bidi="normal" text-decoration="none" transform="matrix(1 0 0 1 2642.08 1113)">0.000</text></g><g clip-path="url(#clip6)"><text fill="#595959" fill-opacity="1" font-family="Calibri,Calibri_MSFontService,sans-serif" font-style="normal" font-variant="normal" font-weight="400" font-stretch="normal" font-size="41" text-anchor="start" direction="ltr" writing-mode="lr-tb" unicode-bidi="normal" text-decoration="none" transform="matrix(1 0 0 1 2642.08 988)">0.200</text></g><g clip-path="url(#clip7)"><text fill="#595959" fill-opacity="1" font-family="Calibri,Calibri_MSFontService,sans-serif" font-style="normal" font-variant="normal" font-weight="400" font-stretch="normal" font-size="41" text-anchor="start" direction="ltr" writing-mode="lr-tb" unicode-bidi="normal" text-decoration="none" transform="matrix(1 0 0 1 2642.08 863)">0.400</text></g><g clip-path="url(#clip8)"><text fill="#595959" fill-opacity="1" font-family="Calibri,Calibri_MSFontService,sans-serif" font-style="normal" font-variant="normal" font-weight="400" font-stretch="normal" font-size="41" text-anchor="start" direction="ltr" writing-mode="lr-tb" unicode-bidi="normal" text-decoration="none" transform="matrix(1 0 0 1 2642.08 738)">0.600</text></g><g clip-path="url(#clip9)"><text fill="#595959" fill-opacity="1" font-family="Calibri,Calibri_MSFontService,sans-serif" font-style="normal" font-variant="normal" font-weight="400" font-stretch="normal" font-size="41" text-anchor="start" direction="ltr" writing-mode="lr-tb" unicode-bidi="normal" text-decoration="none" transform="matrix(1 0 0 1 2642.08 613)">0.800</text></g><g clip-path="url(#clip10)"><text fill="#595959" fill-opacity="1" font-family="Calibri,Calibri_MSFontService,sans-serif" font-style="normal" font-variant="normal" font-weight="400" font-stretch="normal" font-size="41" text-anchor="start" direction="ltr" writing-mode="lr-tb" unicode-bidi="normal" text-decoration="none" transform="matrix(1 0 0 1 2642.08 488)">1.000</text></g><g clip-path="url(#clip11)"><text fill="#595959" fill-opacity="1" font-family="Calibri,Calibri_MSFontService,sans-serif" font-style="normal" font-variant="normal" font-weight="400" font-stretch="normal" font-size="41" text-anchor="start" direction="ltr" writing-mode="lr-tb" unicode-bidi="normal" text-decoration="none" transform="matrix(1 0 0 1 2642.08 363)">1.200</text></g><g clip-path="url(#clip12)"><text fill="#595959" fill-opacity="1" font-family="Calibri,Calibri_MSFontService,sans-serif" font-style="normal" font-variant="normal" font-weight="400" font-stretch="normal" font-size="41" text-anchor="start" direction="ltr" writing-mode="lr-tb" unicode-bidi="normal" text-decoration="none" transform="matrix(1 0 0 1 2777.76 1168)">1</text></g><g clip-path="url(#clip13)"><text fill="#595959" fill-opacity="1" font-family="Calibri,Calibri_MSFontService,sans-serif" font-style="normal" font-variant="normal" font-weight="400" font-stretch="normal" font-size="41" text-anchor="start" direction="ltr" writing-mode="lr-tb" unicode-bidi="normal" text-decoration="none" transform="matrix(1 0 0 1 2833.24 1168)">3</text></g><g clip-path="url(#clip14)"><text fill="#595959" fill-opacity="1" font-family="Calibri,Calibri_MSFontService,sans-serif" font-style="normal" font-variant="normal" font-weight="400" font-stretch="normal" font-size="41" text-anchor="start" direction="ltr" writing-mode="lr-tb" unicode-bidi="normal" text-decoration="none" transform="matrix(1 0 0 1 2888.72 1168)">5</text></g><g clip-path="url(#clip15)"><text fill="#595959" fill-opacity="1" font-family="Calibri,Calibri_MSFontService,sans-serif" font-style="normal" font-variant="normal" font-weight="400" font-stretch="normal" font-size="41" text-anchor="start" direction="ltr" writing-mode="lr-tb" unicode-bidi="normal" text-decoration="none" transform="matrix(1 0 0 1 2944.21 1168)">7</text></g><g clip-path="url(#clip16)"><text fill="#595959" fill-opacity="1" font-family="Calibri,Calibri_MSFontService,sans-serif" font-style="normal" font-variant="normal" font-weight="400" font-stretch="normal" font-size="41" text-anchor="start" direction="ltr" writing-mode="lr-tb" unicode-bidi="normal" text-decoration="none" transform="matrix(1 0 0 1 2999.69 1168)">9</text></g><g clip-path="url(#clip17)"><text fill="#595959" fill-opacity="1" font-family="Calibri,Calibri_MSFontService,sans-serif" font-style="normal" font-variant="normal" font-weight="400" font-stretch="normal" font-size="41" text-anchor="start" direction="ltr" writing-mode="lr-tb" unicode-bidi="normal" text-decoration="none" transform="matrix(1 0 0 1 3044.73 1168)">11</text></g><g clip-path="url(#clip18)"><text fill="#595959" fill-opacity="1" font-family="Calibri,Calibri_MSFontService,sans-serif" font-style="normal" font-variant="normal" font-weight="400" font-stretch="normal" font-size="41" text-anchor="start" direction="ltr" writing-mode="lr-tb" unicode-bidi="normal" text-decoration="none" transform="matrix(1 0 0 1 3100.21 1168)">13</text></g><g clip-path="url(#clip19)"><text fill="#595959" fill-opacity="1" font-family="Calibri,Calibri_MSFontService,sans-serif" font-style="normal" font-variant="normal" font-weight="400" font-stretch="normal" font-size="41" text-anchor="start" direction="ltr" writing-mode="lr-tb" unicode-bidi="normal" text-decoration="none" transform="matrix(1 0 0 1 3155.69 1168)">15</text></g><g clip-path="url(#clip20)"><text fill="#595959" fill-opacity="1" font-family="Calibri,Calibri_MSFontService,sans-serif" font-style="normal" font-variant="normal" font-weight="400" font-stretch="normal" font-size="41" text-anchor="start" direction="ltr" writing-mode="lr-tb" unicode-bidi="normal" text-decoration="none" transform="matrix(1 0 0 1 3211.18 1168)">17</text></g><g clip-path="url(#clip21)"><text fill="#595959" fill-opacity="1" font-family="Calibri,Calibri_MSFontService,sans-serif" font-style="normal" font-variant="normal" font-weight="400" font-stretch="normal" font-size="41" text-anchor="start" direction="ltr" writing-mode="lr-tb" unicode-bidi="normal" text-decoration="none" transform="matrix(1 0 0 1 3266.66 1168)">19</text></g><g clip-path="url(#clip22)"><text fill="#595959" fill-opacity="1" font-family="Calibri,Calibri_MSFontService,sans-serif" font-style="normal" font-variant="normal" font-weight="400" font-stretch="normal" font-size="41" text-anchor="start" direction="ltr" writing-mode="lr-tb" unicode-bidi="normal" text-decoration="none" transform="matrix(1 0 0 1 3322.14 1168)">21</text></g><g clip-path="url(#clip23)"><text fill="#595959" fill-opacity="1" font-family="Calibri,Calibri_MSFontService,sans-serif" font-style="normal" font-variant="normal" font-weight="400" font-stretch="normal" font-size="41" text-anchor="start" direction="ltr" writing-mode="lr-tb" unicode-bidi="normal" text-decoration="none" transform="matrix(1 0 0 1 3377.63 1168)">23</text></g><g clip-path="url(#clip24)"><text fill="#595959" fill-opacity="1" font-family="Calibri,Calibri_MSFontService,sans-serif" font-style="normal" font-variant="normal" font-weight="400" font-stretch="normal" font-size="41" text-anchor="start" direction="ltr" writing-mode="lr-tb" unicode-bidi="normal" text-decoration="none" transform="matrix(1 0 0 1 3433.11 1168)">25</text></g><g clip-path="url(#clip25)"><text fill="#595959" fill-opacity="1" font-family="Calibri,Calibri_MSFontService,sans-serif" font-style="normal" font-variant="normal" font-weight="400" font-stretch="normal" font-size="41" text-anchor="start" direction="ltr" writing-mode="lr-tb" unicode-bidi="normal" text-decoration="none" transform="matrix(1 0 0 1 3488.6 1168)">27</text></g><g clip-path="url(#clip26)"><text fill="#595959" fill-opacity="1" font-family="Calibri,Calibri_MSFontService,sans-serif" font-style="normal" font-variant="normal" font-weight="400" font-stretch="normal" font-size="41" text-anchor="start" direction="ltr" writing-mode="lr-tb" unicode-bidi="normal" text-decoration="none" transform="matrix(1 0 0 1 3544.08 1168)">29</text></g><g clip-path="url(#clip27)"><text fill="#595959" fill-opacity="1" font-family="Calibri,Calibri_MSFontService,sans-serif" font-style="normal" font-variant="normal" font-weight="400" font-stretch="normal" font-size="41" text-anchor="start" direction="ltr" writing-mode="lr-tb" unicode-bidi="normal" text-decoration="none" transform="matrix(1 0 0 1 3599.56 1168)">31</text></g><g clip-path="url(#clip28)"><text fill="#595959" fill-opacity="1" font-family="Calibri,Calibri_MSFontService,sans-serif" font-style="normal" font-variant="normal" font-weight="400" font-stretch="normal" font-size="41" text-anchor="start" direction="ltr" writing-mode="lr-tb" unicode-bidi="normal" text-decoration="none" transform="matrix(1 0 0 1 3655.05 1168)">33</text></g><g clip-path="url(#clip29)"><text fill="#595959" fill-opacity="1" font-family="Calibri,Calibri_MSFontService,sans-serif" font-style="normal" font-variant="normal" font-weight="400" font-stretch="normal" font-size="41" text-anchor="start" direction="ltr" writing-mode="lr-tb" unicode-bidi="normal" text-decoration="none" transform="matrix(1 0 0 1 3710.53 1168)">35</text></g><g clip-path="url(#clip30)"><text fill="#595959" fill-opacity="1" font-family="Calibri,Calibri_MSFontService,sans-serif" font-style="normal" font-variant="normal" font-weight="400" font-stretch="normal" font-size="41" text-anchor="start" direction="ltr" writing-mode="lr-tb" unicode-bidi="normal" text-decoration="none" transform="matrix(1 0 0 1 3766.02 1168)">37</text></g><g clip-path="url(#clip31)"><text fill="#595959" fill-opacity="1" font-family="Calibri,Calibri_MSFontService,sans-serif" font-style="normal" font-variant="normal" font-weight="400" font-stretch="normal" font-size="41" text-anchor="start" direction="ltr" writing-mode="lr-tb" unicode-bidi="normal" text-decoration="none" transform="matrix(1 0 0 1 3821.5 1168)">39</text></g><g clip-path="url(#clip32)"><text fill="#595959" fill-opacity="1" font-family="Calibri,Calibri_MSFontService,sans-serif" font-style="normal" font-variant="normal" font-weight="400" font-stretch="normal" font-size="41" text-anchor="start" direction="ltr" writing-mode="lr-tb" unicode-bidi="normal" text-decoration="none" transform="matrix(1 0 0 1 3876.98 1168)">41</text></g><g clip-path="url(#clip33)"><text fill="#595959" fill-opacity="1" font-family="Calibri,Calibri_MSFontService,sans-serif" font-style="normal" font-variant="normal" font-weight="400" font-stretch="normal" font-size="41" text-anchor="start" direction="ltr" writing-mode="lr-tb" unicode-bidi="normal" text-decoration="none" transform="matrix(1 0 0 1 3932.47 1168)">43</text></g><g clip-path="url(#clip34)"><text fill="#595959" fill-opacity="1" font-family="Calibri,Calibri_MSFontService,sans-serif" font-style="normal" font-variant="normal" font-weight="400" font-stretch="normal" font-size="41" text-anchor="start" direction="ltr" writing-mode="lr-tb" unicode-bidi="normal" text-decoration="none" transform="matrix(1 0 0 1 3987.95 1168)">45</text></g><g clip-path="url(#clip35)"><text fill="#595959" fill-opacity="1" font-family="Calibri,Calibri_MSFontService,sans-serif" font-style="normal" font-variant="normal" font-weight="400" font-stretch="normal" font-size="41" text-anchor="start" direction="ltr" writing-mode="lr-tb" unicode-bidi="normal" text-decoration="none" transform="matrix(1 0 0 1 4043.44 1168)">47</text></g><g clip-path="url(#clip36)"><text fill="#595959" fill-opacity="1" font-family="Calibri,Calibri_MSFontService,sans-serif" font-style="normal" font-variant="normal" font-weight="400" font-stretch="normal" font-size="41" text-anchor="start" direction="ltr" writing-mode="lr-tb" unicode-bidi="normal" text-decoration="none" transform="matrix(1 0 0 1 4098.92 1168)">49</text></g><g clip-path="url(#clip37)"><text fill="#595959" fill-opacity="1" font-family="Calibri,Calibri_MSFontService,sans-serif" font-style="normal" font-variant="normal" font-weight="400" font-stretch="normal" font-size="41" text-anchor="start" direction="ltr" writing-mode="lr-tb" unicode-bidi="normal" text-decoration="none" transform="matrix(1 0 0 1 4154.4 1168)">51</text></g><g clip-path="url(#clip38)"><path d="M3143 1248 3231 1248" stroke="#4472C4" stroke-width="10.3125" stroke-linecap="round" stroke-linejoin="round" stroke-miterlimit="10" stroke-opacity="1" fill="none" fill-rule="evenodd"/></g><g clip-path="url(#clip39)"><text fill="#595959" fill-opacity="1" font-family="Calibri,Calibri_MSFontService,sans-serif" font-style="normal" font-variant="normal" font-weight="400" font-stretch="normal" font-size="41" text-anchor="start" direction="ltr" writing-mode="lr-tb" unicode-bidi="normal" text-decoration="none" transform="matrix(1 0 0 1 3239.92 1258)">Wu-Palmer</text></g><g clip-path="url(#clip40)"><path d="M3481 1248 3569 1248" stroke="#ED7D31" stroke-width="10.3125" stroke-linecap="round" stroke-linejoin="round" stroke-miterlimit="10" stroke-opacity="1" fill="none" fill-rule="evenodd"/></g><g clip-path="url(#clip41)"><text fill="#595959" fill-opacity="1" font-family="Calibri,Calibri_MSFontService,sans-serif" font-style="normal" font-variant="normal" font-weight="400" font-stretch="normal" font-size="41" text-anchor="start" direction="ltr" writing-mode="lr-tb" unicode-bidi="normal" text-decoration="none" transform="matrix(1 0 0 1 3578.62 1258)">GED-Norm</text></g><rect x="2612.5" y="302.5" width="1661" height="1012" stroke="#D9D9D9" stroke-width="3.4375" stroke-linecap="butt" stroke-linejoin="round" stroke-miterlimit="10" stroke-opacity="1" fill="none"/></g></svg>